<mxfile host="app.diagrams.net" modified="2021-04-20T12:55:28.371Z" agent="5.0 (Windows NT 10.0; Win64; x64) AppleWebKit/537.36 (KHTML, like Gecko) Chrome/89.0.4389.128 Safari/537.36 Edg/89.0.774.77" etag="4sq_VvI2LWmTXwC-mcEo" version="14.6.1" type="github">
  <diagram id="C5RBs43oDa-KdzZeNtuy" name="Page-1">
    <mxGraphModel dx="1080" dy="1689" grid="1" gridSize="10" guides="1" tooltips="1" connect="1" arrows="1" fold="1" page="1" pageScale="1" pageWidth="827" pageHeight="1169" math="0" shadow="0">
      <root>
        <mxCell id="WIyWlLk6GJQsqaUBKTNV-0" />
        <mxCell id="WIyWlLk6GJQsqaUBKTNV-1" parent="WIyWlLk6GJQsqaUBKTNV-0" />
        <mxCell id="YeJPbqonlaDgZHrQWHC3-2" value="students" style="rounded=0;whiteSpace=wrap;html=1;" parent="WIyWlLk6GJQsqaUBKTNV-1" vertex="1">
          <mxGeometry x="230" y="190" width="120" height="60" as="geometry" />
        </mxCell>
        <mxCell id="YeJPbqonlaDgZHrQWHC3-3" value="" style="endArrow=none;html=1;" parent="WIyWlLk6GJQsqaUBKTNV-1" target="YeJPbqonlaDgZHrQWHC3-4" edge="1" source="YeJPbqonlaDgZHrQWHC3-2">
          <mxGeometry width="50" height="50" relative="1" as="geometry">
            <mxPoint x="430" y="220" as="sourcePoint" />
            <mxPoint x="480" y="170" as="targetPoint" />
          </mxGeometry>
        </mxCell>
        <mxCell id="YeJPbqonlaDgZHrQWHC3-4" value="&lt;u&gt;id&lt;/u&gt;" style="ellipse;whiteSpace=wrap;html=1;" parent="WIyWlLk6GJQsqaUBKTNV-1" vertex="1">
          <mxGeometry x="360" y="45" width="100" height="50" as="geometry" />
        </mxCell>
        <mxCell id="YeJPbqonlaDgZHrQWHC3-5" value="" style="endArrow=none;html=1;" parent="WIyWlLk6GJQsqaUBKTNV-1" target="YeJPbqonlaDgZHrQWHC3-6" edge="1" source="YeJPbqonlaDgZHrQWHC3-2">
          <mxGeometry width="50" height="50" relative="1" as="geometry">
            <mxPoint x="470" y="240" as="sourcePoint" />
            <mxPoint x="520" y="220" as="targetPoint" />
          </mxGeometry>
        </mxCell>
        <mxCell id="YeJPbqonlaDgZHrQWHC3-6" value="name?" style="ellipse;whiteSpace=wrap;html=1;" parent="WIyWlLk6GJQsqaUBKTNV-1" vertex="1">
          <mxGeometry x="120" y="30" width="90" height="60" as="geometry" />
        </mxCell>
        <mxCell id="YeJPbqonlaDgZHrQWHC3-7" value="" style="endArrow=none;html=1;" parent="WIyWlLk6GJQsqaUBKTNV-1" source="YeJPbqonlaDgZHrQWHC3-2" target="YeJPbqonlaDgZHrQWHC3-8" edge="1">
          <mxGeometry width="50" height="50" relative="1" as="geometry">
            <mxPoint x="420" y="340" as="sourcePoint" />
            <mxPoint x="420" y="280" as="targetPoint" />
            <Array as="points" />
          </mxGeometry>
        </mxCell>
        <mxCell id="YeJPbqonlaDgZHrQWHC3-8" value="email" style="ellipse;whiteSpace=wrap;html=1;" parent="WIyWlLk6GJQsqaUBKTNV-1" vertex="1">
          <mxGeometry x="220" y="360" width="100" height="70" as="geometry" />
        </mxCell>
        <mxCell id="YeJPbqonlaDgZHrQWHC3-10" value="password" style="ellipse;whiteSpace=wrap;html=1;" parent="WIyWlLk6GJQsqaUBKTNV-1" vertex="1">
          <mxGeometry x="250" y="30" width="100" height="60" as="geometry" />
        </mxCell>
        <mxCell id="YeJPbqonlaDgZHrQWHC3-17" value="" style="endArrow=none;html=1;" parent="WIyWlLk6GJQsqaUBKTNV-1" source="YeJPbqonlaDgZHrQWHC3-18" edge="1" target="YeJPbqonlaDgZHrQWHC3-2">
          <mxGeometry width="50" height="50" relative="1" as="geometry">
            <mxPoint x="163.66563145999498" y="262.1114561800018" as="sourcePoint" />
            <mxPoint x="350" y="270" as="targetPoint" />
          </mxGeometry>
        </mxCell>
        <mxCell id="YeJPbqonlaDgZHrQWHC3-18" value="phone" style="ellipse;whiteSpace=wrap;html=1;perimeterSpacing=0;shadow=0;sketch=0;strokeWidth=1;gradientDirection=east;" parent="WIyWlLk6GJQsqaUBKTNV-1" vertex="1">
          <mxGeometry x="55" y="245" width="110" height="70" as="geometry" />
        </mxCell>
        <mxCell id="YeJPbqonlaDgZHrQWHC3-24" value="" style="endArrow=none;html=1;" parent="WIyWlLk6GJQsqaUBKTNV-1" target="YeJPbqonlaDgZHrQWHC3-2" edge="1" source="YeJPbqonlaDgZHrQWHC3-25">
          <mxGeometry width="50" height="50" relative="1" as="geometry">
            <mxPoint x="380" y="360" as="sourcePoint" />
            <mxPoint x="410" y="280" as="targetPoint" />
            <Array as="points" />
          </mxGeometry>
        </mxCell>
        <mxCell id="YeJPbqonlaDgZHrQWHC3-25" value="age?" style="ellipse;whiteSpace=wrap;html=1;rounded=0;sketch=0;" parent="WIyWlLk6GJQsqaUBKTNV-1" vertex="1">
          <mxGeometry x="100" y="335" width="110" height="60" as="geometry" />
        </mxCell>
        <mxCell id="QPZrH0Ajvc4-a-Q5nBBF-0" value="teachers" style="rounded=0;whiteSpace=wrap;html=1;" parent="WIyWlLk6GJQsqaUBKTNV-1" vertex="1">
          <mxGeometry x="970" y="210" width="120" height="60" as="geometry" />
        </mxCell>
        <mxCell id="QPZrH0Ajvc4-a-Q5nBBF-17" value="" style="endArrow=none;html=1;" parent="WIyWlLk6GJQsqaUBKTNV-1" edge="1" target="QPZrH0Ajvc4-a-Q5nBBF-0" source="QPZrH0Ajvc4-a-Q5nBBF-19">
          <mxGeometry width="50" height="50" relative="1" as="geometry">
            <mxPoint x="920" y="320" as="sourcePoint" />
            <mxPoint x="970" y="270" as="targetPoint" />
          </mxGeometry>
        </mxCell>
        <mxCell id="QPZrH0Ajvc4-a-Q5nBBF-19" value="&lt;u&gt;id&lt;/u&gt;" style="ellipse;whiteSpace=wrap;html=1;" parent="WIyWlLk6GJQsqaUBKTNV-1" vertex="1">
          <mxGeometry x="1230" y="260" width="70" height="70" as="geometry" />
        </mxCell>
        <mxCell id="QPZrH0Ajvc4-a-Q5nBBF-20" value="name" style="ellipse;whiteSpace=wrap;html=1;" parent="WIyWlLk6GJQsqaUBKTNV-1" vertex="1">
          <mxGeometry x="1025" y="350" width="100" height="50" as="geometry" />
        </mxCell>
        <mxCell id="QPZrH0Ajvc4-a-Q5nBBF-21" value="" style="endArrow=none;html=1;" parent="WIyWlLk6GJQsqaUBKTNV-1" source="QPZrH0Ajvc4-a-Q5nBBF-20" edge="1" target="QPZrH0Ajvc4-a-Q5nBBF-0">
          <mxGeometry width="50" height="50" relative="1" as="geometry">
            <mxPoint x="990" y="320" as="sourcePoint" />
            <mxPoint x="1040" y="270" as="targetPoint" />
          </mxGeometry>
        </mxCell>
        <mxCell id="QPZrH0Ajvc4-a-Q5nBBF-22" value="email" style="ellipse;whiteSpace=wrap;html=1;" parent="WIyWlLk6GJQsqaUBKTNV-1" vertex="1">
          <mxGeometry x="1141" y="315" width="100" height="70" as="geometry" />
        </mxCell>
        <mxCell id="QPZrH0Ajvc4-a-Q5nBBF-23" value="" style="endArrow=none;html=1;" parent="WIyWlLk6GJQsqaUBKTNV-1" target="QPZrH0Ajvc4-a-Q5nBBF-22" edge="1" source="QPZrH0Ajvc4-a-Q5nBBF-0">
          <mxGeometry width="50" height="50" relative="1" as="geometry">
            <mxPoint x="1090" y="265" as="sourcePoint" />
            <mxPoint x="1140" y="215" as="targetPoint" />
          </mxGeometry>
        </mxCell>
        <mxCell id="QPZrH0Ajvc4-a-Q5nBBF-25" value="lesson" style="rounded=0;whiteSpace=wrap;html=1;" parent="WIyWlLk6GJQsqaUBKTNV-1" vertex="1">
          <mxGeometry x="610" y="510" width="120" height="60" as="geometry" />
        </mxCell>
        <mxCell id="QPZrH0Ajvc4-a-Q5nBBF-26" value="&lt;u&gt;id&lt;/u&gt;" style="ellipse;whiteSpace=wrap;html=1;" parent="WIyWlLk6GJQsqaUBKTNV-1" vertex="1">
          <mxGeometry x="631" y="630" width="70" height="50" as="geometry" />
        </mxCell>
        <mxCell id="QPZrH0Ajvc4-a-Q5nBBF-27" value="" style="endArrow=none;html=1;" parent="WIyWlLk6GJQsqaUBKTNV-1" source="QPZrH0Ajvc4-a-Q5nBBF-25" target="QPZrH0Ajvc4-a-Q5nBBF-26" edge="1">
          <mxGeometry width="50" height="50" relative="1" as="geometry">
            <mxPoint x="810" y="540" as="sourcePoint" />
            <mxPoint x="860" y="490" as="targetPoint" />
          </mxGeometry>
        </mxCell>
        <mxCell id="QPZrH0Ajvc4-a-Q5nBBF-32" value="ministram" style="rhombus;whiteSpace=wrap;html=1;" parent="WIyWlLk6GJQsqaUBKTNV-1" vertex="1">
          <mxGeometry x="827" y="360" width="80" height="80" as="geometry" />
        </mxCell>
        <mxCell id="QPZrH0Ajvc4-a-Q5nBBF-33" value="tÃªm" style="rhombus;whiteSpace=wrap;html=1;" parent="WIyWlLk6GJQsqaUBKTNV-1" vertex="1">
          <mxGeometry x="430" y="350" width="80" height="80" as="geometry" />
        </mxCell>
        <mxCell id="QPZrH0Ajvc4-a-Q5nBBF-34" value="username" style="ellipse;whiteSpace=wrap;html=1;" parent="WIyWlLk6GJQsqaUBKTNV-1" vertex="1">
          <mxGeometry x="65" y="140" width="90" height="70" as="geometry" />
        </mxCell>
        <mxCell id="QPZrH0Ajvc4-a-Q5nBBF-35" value="" style="endArrow=none;html=1;" parent="WIyWlLk6GJQsqaUBKTNV-1" target="QPZrH0Ajvc4-a-Q5nBBF-34" edge="1" source="YeJPbqonlaDgZHrQWHC3-2">
          <mxGeometry width="50" height="50" relative="1" as="geometry">
            <mxPoint x="350" y="220" as="sourcePoint" />
            <mxPoint x="400" y="170" as="targetPoint" />
          </mxGeometry>
        </mxCell>
        <mxCell id="QPZrH0Ajvc4-a-Q5nBBF-38" value="phone" style="ellipse;whiteSpace=wrap;html=1;" parent="WIyWlLk6GJQsqaUBKTNV-1" vertex="1">
          <mxGeometry x="1060" y="35" width="100" height="70" as="geometry" />
        </mxCell>
        <mxCell id="QPZrH0Ajvc4-a-Q5nBBF-39" value="" style="endArrow=none;html=1;" parent="WIyWlLk6GJQsqaUBKTNV-1" source="QPZrH0Ajvc4-a-Q5nBBF-0" target="QPZrH0Ajvc4-a-Q5nBBF-38" edge="1">
          <mxGeometry width="50" height="50" relative="1" as="geometry">
            <mxPoint x="990" y="210" as="sourcePoint" />
            <mxPoint x="1055.3150933453019" y="173.5478799685825" as="targetPoint" />
          </mxGeometry>
        </mxCell>
        <mxCell id="QPZrH0Ajvc4-a-Q5nBBF-40" value="password" style="ellipse;whiteSpace=wrap;html=1;" parent="WIyWlLk6GJQsqaUBKTNV-1" vertex="1">
          <mxGeometry x="1180" y="60" width="100" height="60" as="geometry" />
        </mxCell>
        <mxCell id="QPZrH0Ajvc4-a-Q5nBBF-41" value="username" style="ellipse;whiteSpace=wrap;html=1;" parent="WIyWlLk6GJQsqaUBKTNV-1" vertex="1">
          <mxGeometry x="940" y="30" width="90" height="70" as="geometry" />
        </mxCell>
        <mxCell id="QPZrH0Ajvc4-a-Q5nBBF-43" value="" style="endArrow=none;html=1;" parent="WIyWlLk6GJQsqaUBKTNV-1" source="QPZrH0Ajvc4-a-Q5nBBF-40" edge="1" target="QPZrH0Ajvc4-a-Q5nBBF-0">
          <mxGeometry width="50" height="50" relative="1" as="geometry">
            <mxPoint x="920" y="265" as="sourcePoint" />
            <mxPoint x="970" y="215" as="targetPoint" />
          </mxGeometry>
        </mxCell>
        <mxCell id="QPZrH0Ajvc4-a-Q5nBBF-44" value="" style="endArrow=none;html=1;" parent="WIyWlLk6GJQsqaUBKTNV-1" source="QPZrH0Ajvc4-a-Q5nBBF-0" target="QPZrH0Ajvc4-a-Q5nBBF-41" edge="1">
          <mxGeometry width="50" height="50" relative="1" as="geometry">
            <mxPoint x="980" y="210" as="sourcePoint" />
            <mxPoint x="1030" y="160" as="targetPoint" />
          </mxGeometry>
        </mxCell>
        <mxCell id="QPZrH0Ajvc4-a-Q5nBBF-46" value="N" style="shape=link;html=1;fontSize=17;" parent="WIyWlLk6GJQsqaUBKTNV-1" source="QPZrH0Ajvc4-a-Q5nBBF-25" target="QPZrH0Ajvc4-a-Q5nBBF-32" edge="1">
          <mxGeometry width="100" relative="1" as="geometry">
            <mxPoint x="815" y="480" as="sourcePoint" />
            <mxPoint x="915" y="480" as="targetPoint" />
          </mxGeometry>
        </mxCell>
        <mxCell id="QPZrH0Ajvc4-a-Q5nBBF-47" value="1" style="shape=link;html=1;width=5;fontSize=17;" parent="WIyWlLk6GJQsqaUBKTNV-1" source="YeJPbqonlaDgZHrQWHC3-2" edge="1" target="QPZrH0Ajvc4-a-Q5nBBF-33">
          <mxGeometry width="100" relative="1" as="geometry">
            <mxPoint x="400" y="509.5" as="sourcePoint" />
            <mxPoint x="440" y="470" as="targetPoint" />
          </mxGeometry>
        </mxCell>
        <mxCell id="QPZrH0Ajvc4-a-Q5nBBF-49" value="N" style="shape=link;html=1;endSize=6;fontSize=17;" parent="WIyWlLk6GJQsqaUBKTNV-1" source="QPZrH0Ajvc4-a-Q5nBBF-33" edge="1" target="QPZrH0Ajvc4-a-Q5nBBF-25">
          <mxGeometry width="100" relative="1" as="geometry">
            <mxPoint x="600" y="620" as="sourcePoint" />
            <mxPoint x="700" y="620" as="targetPoint" />
          </mxGeometry>
        </mxCell>
        <mxCell id="QPZrH0Ajvc4-a-Q5nBBF-55" value="price" style="ellipse;whiteSpace=wrap;html=1;fillColor=none;" parent="WIyWlLk6GJQsqaUBKTNV-1" vertex="1">
          <mxGeometry x="491.5" y="610" width="85" height="60" as="geometry" />
        </mxCell>
        <mxCell id="QPZrH0Ajvc4-a-Q5nBBF-58" value="" style="endArrow=none;html=1;" parent="WIyWlLk6GJQsqaUBKTNV-1" target="QPZrH0Ajvc4-a-Q5nBBF-25" edge="1" source="QPZrH0Ajvc4-a-Q5nBBF-55">
          <mxGeometry width="50" height="50" relative="1" as="geometry">
            <mxPoint x="800" y="740" as="sourcePoint" />
            <mxPoint x="850" y="690" as="targetPoint" />
          </mxGeometry>
        </mxCell>
        <mxCell id="QPZrH0Ajvc4-a-Q5nBBF-59" value="&lt;font style=&quot;font-size: 12px&quot;&gt;schedule&lt;/font&gt;" style="ellipse;whiteSpace=wrap;html=1;fillColor=none;fontSize=12;" parent="WIyWlLk6GJQsqaUBKTNV-1" vertex="1">
          <mxGeometry x="745" y="610" width="90" height="60" as="geometry" />
        </mxCell>
        <mxCell id="QPZrH0Ajvc4-a-Q5nBBF-60" value="" style="endArrow=none;html=1;fontSize=12;" parent="WIyWlLk6GJQsqaUBKTNV-1" target="QPZrH0Ajvc4-a-Q5nBBF-59" edge="1" source="QPZrH0Ajvc4-a-Q5nBBF-25">
          <mxGeometry width="50" height="50" relative="1" as="geometry">
            <mxPoint x="820" y="640" as="sourcePoint" />
            <mxPoint x="870" y="590" as="targetPoint" />
          </mxGeometry>
        </mxCell>
        <mxCell id="7uHokPlCw8yeGiN5BkeQ-26" value="NIF" style="ellipse;whiteSpace=wrap;html=1;fontSize=12;" parent="WIyWlLk6GJQsqaUBKTNV-1" vertex="1">
          <mxGeometry x="1241" y="132.5" width="100" height="70" as="geometry" />
        </mxCell>
        <mxCell id="7uHokPlCw8yeGiN5BkeQ-27" value="" style="endArrow=none;html=1;fontSize=12;" parent="WIyWlLk6GJQsqaUBKTNV-1" target="7uHokPlCw8yeGiN5BkeQ-26" edge="1" source="QPZrH0Ajvc4-a-Q5nBBF-0">
          <mxGeometry width="50" height="50" relative="1" as="geometry">
            <mxPoint x="1090" y="250" as="sourcePoint" />
            <mxPoint x="1140" y="200" as="targetPoint" />
          </mxGeometry>
        </mxCell>
        <mxCell id="ZxcHzyBanlLkTp8bQzHT-0" value="Aula_teste" style="rounded=0;whiteSpace=wrap;html=1;" parent="WIyWlLk6GJQsqaUBKTNV-1" vertex="1">
          <mxGeometry x="580" y="-50" width="120" height="60" as="geometry" />
        </mxCell>
        <mxCell id="ZxcHzyBanlLkTp8bQzHT-3" value="nivel" style="ellipse;whiteSpace=wrap;html=1;" parent="WIyWlLk6GJQsqaUBKTNV-1" vertex="1">
          <mxGeometry x="570" y="-160" width="80" height="50" as="geometry" />
        </mxCell>
        <mxCell id="ZxcHzyBanlLkTp8bQzHT-4" value="&lt;u&gt;id&lt;/u&gt;" style="ellipse;whiteSpace=wrap;html=1;" parent="WIyWlLk6GJQsqaUBKTNV-1" vertex="1">
          <mxGeometry x="450" y="-120" width="90" height="60" as="geometry" />
        </mxCell>
        <mxCell id="ZxcHzyBanlLkTp8bQzHT-7" value="" style="endArrow=none;html=1;" parent="WIyWlLk6GJQsqaUBKTNV-1" target="ZxcHzyBanlLkTp8bQzHT-3" edge="1" source="ZxcHzyBanlLkTp8bQzHT-0">
          <mxGeometry width="50" height="50" relative="1" as="geometry">
            <mxPoint x="600" y="-50" as="sourcePoint" />
            <mxPoint x="650" y="-100" as="targetPoint" />
          </mxGeometry>
        </mxCell>
        <mxCell id="ZxcHzyBanlLkTp8bQzHT-8" value="" style="endArrow=none;html=1;" parent="WIyWlLk6GJQsqaUBKTNV-1" source="ZxcHzyBanlLkTp8bQzHT-4" edge="1" target="ZxcHzyBanlLkTp8bQzHT-0">
          <mxGeometry width="50" height="50" relative="1" as="geometry">
            <mxPoint x="530" y="20" as="sourcePoint" />
            <mxPoint x="580" y="-30" as="targetPoint" />
          </mxGeometry>
        </mxCell>
        <mxCell id="ZxcHzyBanlLkTp8bQzHT-9" value="CondTec" style="ellipse;whiteSpace=wrap;html=1;" parent="WIyWlLk6GJQsqaUBKTNV-1" vertex="1">
          <mxGeometry x="701" y="-150" width="80" height="50" as="geometry" />
        </mxCell>
        <mxCell id="ZxcHzyBanlLkTp8bQzHT-10" value="Webcam" style="ellipse;whiteSpace=wrap;html=1;" parent="WIyWlLk6GJQsqaUBKTNV-1" vertex="1">
          <mxGeometry x="810" y="-210" width="70" height="50" as="geometry" />
        </mxCell>
        <mxCell id="ZxcHzyBanlLkTp8bQzHT-11" value="PlacaSom" style="ellipse;whiteSpace=wrap;html=1;" parent="WIyWlLk6GJQsqaUBKTNV-1" vertex="1">
          <mxGeometry x="871" y="-160" width="70" height="50" as="geometry" />
        </mxCell>
        <mxCell id="ZxcHzyBanlLkTp8bQzHT-12" value="Phones" style="ellipse;whiteSpace=wrap;html=1;" parent="WIyWlLk6GJQsqaUBKTNV-1" vertex="1">
          <mxGeometry x="900" y="-100" width="70" height="50" as="geometry" />
        </mxCell>
        <mxCell id="ZxcHzyBanlLkTp8bQzHT-13" value="" style="endArrow=none;html=1;" parent="WIyWlLk6GJQsqaUBKTNV-1" target="ZxcHzyBanlLkTp8bQzHT-11" edge="1" source="ZxcHzyBanlLkTp8bQzHT-9">
          <mxGeometry width="50" height="50" relative="1" as="geometry">
            <mxPoint x="830" y="-110" as="sourcePoint" />
            <mxPoint x="880" y="-160" as="targetPoint" />
          </mxGeometry>
        </mxCell>
        <mxCell id="ZxcHzyBanlLkTp8bQzHT-14" value="" style="endArrow=none;html=1;" parent="WIyWlLk6GJQsqaUBKTNV-1" source="ZxcHzyBanlLkTp8bQzHT-9" edge="1" target="ZxcHzyBanlLkTp8bQzHT-12">
          <mxGeometry width="50" height="50" relative="1" as="geometry">
            <mxPoint x="850" y="-30" as="sourcePoint" />
            <mxPoint x="900" y="-80" as="targetPoint" />
          </mxGeometry>
        </mxCell>
        <mxCell id="ZxcHzyBanlLkTp8bQzHT-15" value="" style="endArrow=none;html=1;" parent="WIyWlLk6GJQsqaUBKTNV-1" source="ZxcHzyBanlLkTp8bQzHT-9" target="ZxcHzyBanlLkTp8bQzHT-10" edge="1">
          <mxGeometry width="50" height="50" relative="1" as="geometry">
            <mxPoint x="790" y="-130" as="sourcePoint" />
            <mxPoint x="840" y="-180" as="targetPoint" />
          </mxGeometry>
        </mxCell>
        <mxCell id="ZxcHzyBanlLkTp8bQzHT-16" value="Microfone" style="ellipse;whiteSpace=wrap;html=1;" parent="WIyWlLk6GJQsqaUBKTNV-1" vertex="1">
          <mxGeometry x="765" y="-260" width="70" height="50" as="geometry" />
        </mxCell>
        <mxCell id="ZxcHzyBanlLkTp8bQzHT-17" value="" style="endArrow=none;html=1;" parent="WIyWlLk6GJQsqaUBKTNV-1" target="ZxcHzyBanlLkTp8bQzHT-16" edge="1" source="ZxcHzyBanlLkTp8bQzHT-9">
          <mxGeometry width="50" height="50" relative="1" as="geometry">
            <mxPoint x="780" y="-130" as="sourcePoint" />
            <mxPoint x="830" y="-180" as="targetPoint" />
          </mxGeometry>
        </mxCell>
        <mxCell id="ZxcHzyBanlLkTp8bQzHT-18" value="" style="endArrow=none;html=1;" parent="WIyWlLk6GJQsqaUBKTNV-1" target="ZxcHzyBanlLkTp8bQzHT-9" edge="1" source="ZxcHzyBanlLkTp8bQzHT-0">
          <mxGeometry width="50" height="50" relative="1" as="geometry">
            <mxPoint x="700" y="-50" as="sourcePoint" />
            <mxPoint x="750" y="-100" as="targetPoint" />
          </mxGeometry>
        </mxCell>
        <mxCell id="ZxcHzyBanlLkTp8bQzHT-19" value="Objetivos" style="ellipse;whiteSpace=wrap;html=1;" parent="WIyWlLk6GJQsqaUBKTNV-1" vertex="1">
          <mxGeometry x="765" y="-60" width="70" height="50" as="geometry" />
        </mxCell>
        <mxCell id="ZxcHzyBanlLkTp8bQzHT-20" value="" style="endArrow=none;html=1;" parent="WIyWlLk6GJQsqaUBKTNV-1" source="ZxcHzyBanlLkTp8bQzHT-0" target="ZxcHzyBanlLkTp8bQzHT-19" edge="1">
          <mxGeometry width="50" height="50" relative="1" as="geometry">
            <mxPoint x="821" y="-120" as="sourcePoint" />
            <mxPoint x="871" y="-170" as="targetPoint" />
          </mxGeometry>
        </mxCell>
        <mxCell id="ZxcHzyBanlLkTp8bQzHT-24" value="tÃªm" style="rhombus;whiteSpace=wrap;html=1;" parent="WIyWlLk6GJQsqaUBKTNV-1" vertex="1">
          <mxGeometry x="484" y="75" width="80" height="80" as="geometry" />
        </mxCell>
        <mxCell id="ZxcHzyBanlLkTp8bQzHT-25" value="1" style="shape=link;html=1;fontSize=17;" parent="WIyWlLk6GJQsqaUBKTNV-1" source="YeJPbqonlaDgZHrQWHC3-2" edge="1" target="ZxcHzyBanlLkTp8bQzHT-24">
          <mxGeometry width="100" relative="1" as="geometry">
            <mxPoint x="420" y="114.5" as="sourcePoint" />
            <mxPoint x="520" y="114.5" as="targetPoint" />
            <Array as="points">
              <mxPoint x="470" y="140" />
            </Array>
          </mxGeometry>
        </mxCell>
        <mxCell id="ZxcHzyBanlLkTp8bQzHT-26" value="1" style="shape=link;html=1;fontSize=17;" parent="WIyWlLk6GJQsqaUBKTNV-1" target="ZxcHzyBanlLkTp8bQzHT-0" edge="1" source="ZxcHzyBanlLkTp8bQzHT-24">
          <mxGeometry width="100" relative="1" as="geometry">
            <mxPoint x="550" y="70" as="sourcePoint" />
            <mxPoint x="615" y="-32.5" as="targetPoint" />
          </mxGeometry>
        </mxCell>
        <mxCell id="ZxcHzyBanlLkTp8bQzHT-29" value="&lt;font style=&quot;font-size: 12px&quot;&gt;ministra&lt;/font&gt;" style="rhombus;whiteSpace=wrap;html=1;fontSize=17;" parent="WIyWlLk6GJQsqaUBKTNV-1" vertex="1">
          <mxGeometry x="791" y="60" width="80" height="80" as="geometry" />
        </mxCell>
        <mxCell id="ZxcHzyBanlLkTp8bQzHT-31" value="N" style="shape=link;html=1;fontSize=17;" parent="WIyWlLk6GJQsqaUBKTNV-1" source="ZxcHzyBanlLkTp8bQzHT-29" edge="1">
          <mxGeometry width="100" relative="1" as="geometry">
            <mxPoint x="635" y="112.5" as="sourcePoint" />
            <mxPoint x="700" y="10" as="targetPoint" />
            <Array as="points" />
          </mxGeometry>
        </mxCell>
        <mxCell id="ZxcHzyBanlLkTp8bQzHT-33" value="1" style="endArrow=none;html=1;fontSize=17;" parent="WIyWlLk6GJQsqaUBKTNV-1" target="ZxcHzyBanlLkTp8bQzHT-29" edge="1" source="QPZrH0Ajvc4-a-Q5nBBF-0">
          <mxGeometry width="50" height="50" relative="1" as="geometry">
            <mxPoint x="990" y="210" as="sourcePoint" />
            <mxPoint x="860" y="130" as="targetPoint" />
          </mxGeometry>
        </mxCell>
        <mxCell id="ZxcHzyBanlLkTp8bQzHT-34" value="1" style="endArrow=none;html=1;fontSize=17;" parent="WIyWlLk6GJQsqaUBKTNV-1" source="QPZrH0Ajvc4-a-Q5nBBF-32" edge="1" target="QPZrH0Ajvc4-a-Q5nBBF-0">
          <mxGeometry width="50" height="50" relative="1" as="geometry">
            <mxPoint x="960" y="325" as="sourcePoint" />
            <mxPoint x="1000" y="270" as="targetPoint" />
            <Array as="points" />
          </mxGeometry>
        </mxCell>
        <mxCell id="ZxcHzyBanlLkTp8bQzHT-35" value="&lt;font style=&quot;font-size: 12px&quot;&gt;instrument&lt;/font&gt;" style="rounded=0;whiteSpace=wrap;html=1;fontSize=17;" parent="WIyWlLk6GJQsqaUBKTNV-1" vertex="1">
          <mxGeometry x="640" y="240" width="100" height="50" as="geometry" />
        </mxCell>
        <mxCell id="ZxcHzyBanlLkTp8bQzHT-36" value="&lt;font style=&quot;font-size: 12px&quot;&gt;aprende&lt;/font&gt;" style="rhombus;whiteSpace=wrap;html=1;fontSize=17;" parent="WIyWlLk6GJQsqaUBKTNV-1" vertex="1">
          <mxGeometry x="494" y="220" width="70" height="70" as="geometry" />
        </mxCell>
        <mxCell id="ZxcHzyBanlLkTp8bQzHT-37" value="&lt;font style=&quot;font-size: 12px&quot;&gt;ensina&lt;/font&gt;" style="rhombus;whiteSpace=wrap;html=1;fontSize=17;" parent="WIyWlLk6GJQsqaUBKTNV-1" vertex="1">
          <mxGeometry x="810" y="220" width="70" height="70" as="geometry" />
        </mxCell>
        <mxCell id="ZxcHzyBanlLkTp8bQzHT-42" value="M" style="shape=link;html=1;fontSize=17;" parent="WIyWlLk6GJQsqaUBKTNV-1" edge="1" target="ZxcHzyBanlLkTp8bQzHT-36" source="YeJPbqonlaDgZHrQWHC3-2">
          <mxGeometry width="100" relative="1" as="geometry">
            <mxPoint x="470" y="260" as="sourcePoint" />
            <mxPoint x="570" y="260" as="targetPoint" />
          </mxGeometry>
        </mxCell>
        <mxCell id="ZxcHzyBanlLkTp8bQzHT-43" value="N" style="shape=link;html=1;fontSize=17;" parent="WIyWlLk6GJQsqaUBKTNV-1" edge="1" target="ZxcHzyBanlLkTp8bQzHT-35" source="ZxcHzyBanlLkTp8bQzHT-36">
          <mxGeometry width="100" relative="1" as="geometry">
            <mxPoint x="640" y="260" as="sourcePoint" />
            <mxPoint x="675" y="260" as="targetPoint" />
          </mxGeometry>
        </mxCell>
        <mxCell id="ZxcHzyBanlLkTp8bQzHT-44" value="N" style="shape=link;html=1;fontSize=17;" parent="WIyWlLk6GJQsqaUBKTNV-1" source="ZxcHzyBanlLkTp8bQzHT-35" edge="1" target="ZxcHzyBanlLkTp8bQzHT-37">
          <mxGeometry width="100" relative="1" as="geometry">
            <mxPoint x="780" y="275" as="sourcePoint" />
            <mxPoint x="820" y="275" as="targetPoint" />
          </mxGeometry>
        </mxCell>
        <mxCell id="ZxcHzyBanlLkTp8bQzHT-45" value="M" style="shape=link;html=1;fontSize=17;" parent="WIyWlLk6GJQsqaUBKTNV-1" source="ZxcHzyBanlLkTp8bQzHT-37" edge="1" target="QPZrH0Ajvc4-a-Q5nBBF-0">
          <mxGeometry width="100" relative="1" as="geometry">
            <mxPoint x="870" y="259.5" as="sourcePoint" />
            <mxPoint x="970" y="259.5" as="targetPoint" />
          </mxGeometry>
        </mxCell>
        <mxCell id="ZxcHzyBanlLkTp8bQzHT-46" value="&lt;font style=&quot;font-size: 12px&quot;&gt;&lt;u&gt;id&lt;/u&gt;&lt;/font&gt;" style="ellipse;whiteSpace=wrap;html=1;fontSize=17;" parent="WIyWlLk6GJQsqaUBKTNV-1" vertex="1">
          <mxGeometry x="670" y="155" width="60" height="40" as="geometry" />
        </mxCell>
        <mxCell id="ZxcHzyBanlLkTp8bQzHT-47" value="" style="endArrow=none;html=1;fontSize=17;" parent="WIyWlLk6GJQsqaUBKTNV-1" target="ZxcHzyBanlLkTp8bQzHT-46" edge="1" source="ZxcHzyBanlLkTp8bQzHT-35">
          <mxGeometry width="50" height="50" relative="1" as="geometry">
            <mxPoint x="710" y="240" as="sourcePoint" />
            <mxPoint x="760" y="190" as="targetPoint" />
          </mxGeometry>
        </mxCell>
        <mxCell id="ZxcHzyBanlLkTp8bQzHT-49" value="&lt;font style=&quot;font-size: 12px&quot;&gt;inst_name&lt;/font&gt;" style="ellipse;whiteSpace=wrap;html=1;fontSize=17;" parent="WIyWlLk6GJQsqaUBKTNV-1" vertex="1">
          <mxGeometry x="630" y="330" width="70" height="60" as="geometry" />
        </mxCell>
        <mxCell id="ZxcHzyBanlLkTp8bQzHT-50" value="" style="endArrow=none;html=1;fontSize=17;" parent="WIyWlLk6GJQsqaUBKTNV-1" target="ZxcHzyBanlLkTp8bQzHT-35" edge="1" source="ZxcHzyBanlLkTp8bQzHT-49">
          <mxGeometry width="50" height="50" relative="1" as="geometry">
            <mxPoint x="720" y="335" as="sourcePoint" />
            <mxPoint x="770" y="285" as="targetPoint" />
          </mxGeometry>
        </mxCell>
        <mxCell id="KKogX5XyxXrD-nstwHty-0" value="firstname" style="ellipse;whiteSpace=wrap;html=1;" vertex="1" parent="WIyWlLk6GJQsqaUBKTNV-1">
          <mxGeometry x="50" y="-70" width="80" height="55" as="geometry" />
        </mxCell>
        <mxCell id="KKogX5XyxXrD-nstwHty-1" value="lastname" style="ellipse;whiteSpace=wrap;html=1;" vertex="1" parent="WIyWlLk6GJQsqaUBKTNV-1">
          <mxGeometry x="180" y="-90" width="80" height="55" as="geometry" />
        </mxCell>
        <mxCell id="KKogX5XyxXrD-nstwHty-2" value="" style="endArrow=none;html=1;" edge="1" parent="WIyWlLk6GJQsqaUBKTNV-1" target="KKogX5XyxXrD-nstwHty-0" source="YeJPbqonlaDgZHrQWHC3-6">
          <mxGeometry width="50" height="50" relative="1" as="geometry">
            <mxPoint x="559.8406745844013" y="178.0733702068842" as="sourcePoint" />
            <mxPoint x="514" y="233" as="targetPoint" />
          </mxGeometry>
        </mxCell>
        <mxCell id="KKogX5XyxXrD-nstwHty-3" value="" style="endArrow=none;html=1;" edge="1" parent="WIyWlLk6GJQsqaUBKTNV-1" target="KKogX5XyxXrD-nstwHty-1" source="YeJPbqonlaDgZHrQWHC3-6">
          <mxGeometry width="50" height="50" relative="1" as="geometry">
            <mxPoint x="584.8355992068739" y="202.4379657596071" as="sourcePoint" />
            <mxPoint x="524" y="243" as="targetPoint" />
          </mxGeometry>
        </mxCell>
        <mxCell id="KKogX5XyxXrD-nstwHty-5" value="" style="endArrow=none;html=1;" edge="1" parent="WIyWlLk6GJQsqaUBKTNV-1" source="YeJPbqonlaDgZHrQWHC3-2" target="YeJPbqonlaDgZHrQWHC3-10">
          <mxGeometry width="50" height="50" relative="1" as="geometry">
            <mxPoint x="429.37" y="198.62" as="sourcePoint" />
            <mxPoint x="290.0002015003562" y="114.99812090021362" as="targetPoint" />
          </mxGeometry>
        </mxCell>
        <mxCell id="KKogX5XyxXrD-nstwHty-6" value="firstname" style="ellipse;whiteSpace=wrap;html=1;" vertex="1" parent="WIyWlLk6GJQsqaUBKTNV-1">
          <mxGeometry x="1000" y="440" width="80" height="55" as="geometry" />
        </mxCell>
        <mxCell id="KKogX5XyxXrD-nstwHty-7" value="lastname" style="ellipse;whiteSpace=wrap;html=1;" vertex="1" parent="WIyWlLk6GJQsqaUBKTNV-1">
          <mxGeometry x="1130" y="420" width="80" height="55" as="geometry" />
        </mxCell>
        <mxCell id="KKogX5XyxXrD-nstwHty-8" value="" style="endArrow=none;html=1;" edge="1" target="KKogX5XyxXrD-nstwHty-6" parent="WIyWlLk6GJQsqaUBKTNV-1" source="QPZrH0Ajvc4-a-Q5nBBF-20">
          <mxGeometry width="50" height="50" relative="1" as="geometry">
            <mxPoint x="1095.3676922066284" y="543.005576784114" as="sourcePoint" />
            <mxPoint x="1464" y="743" as="targetPoint" />
          </mxGeometry>
        </mxCell>
        <mxCell id="KKogX5XyxXrD-nstwHty-9" value="" style="endArrow=none;html=1;" edge="1" target="KKogX5XyxXrD-nstwHty-7" parent="WIyWlLk6GJQsqaUBKTNV-1" source="QPZrH0Ajvc4-a-Q5nBBF-20">
          <mxGeometry width="50" height="50" relative="1" as="geometry">
            <mxPoint x="1127.875702155593" y="541.2542463503037" as="sourcePoint" />
            <mxPoint x="1474" y="753" as="targetPoint" />
          </mxGeometry>
        </mxCell>
        <mxCell id="KKogX5XyxXrD-nstwHty-10" value="" style="endArrow=none;html=1;" edge="1" source="KKogX5XyxXrD-nstwHty-11" parent="WIyWlLk6GJQsqaUBKTNV-1" target="QPZrH0Ajvc4-a-Q5nBBF-0">
          <mxGeometry width="50" height="50" relative="1" as="geometry">
            <mxPoint x="1021" y="267.98" as="sourcePoint" />
            <mxPoint x="1191" y="202.02255319148932" as="targetPoint" />
          </mxGeometry>
        </mxCell>
        <mxCell id="KKogX5XyxXrD-nstwHty-11" value="bio" style="ellipse;whiteSpace=wrap;html=1;" vertex="1" parent="WIyWlLk6GJQsqaUBKTNV-1">
          <mxGeometry x="1331" y="207.98" width="70" height="70" as="geometry" />
        </mxCell>
        <mxCell id="KKogX5XyxXrD-nstwHty-12" value="id_instrument" style="ellipse;whiteSpace=wrap;html=1;" vertex="1" parent="WIyWlLk6GJQsqaUBKTNV-1">
          <mxGeometry x="1390" y="322.5" width="80" height="55" as="geometry" />
        </mxCell>
        <mxCell id="KKogX5XyxXrD-nstwHty-13" value="affiliations?" style="ellipse;whiteSpace=wrap;html=1;" vertex="1" parent="WIyWlLk6GJQsqaUBKTNV-1">
          <mxGeometry x="1450" y="237.5" width="80" height="55" as="geometry" />
        </mxCell>
        <mxCell id="KKogX5XyxXrD-nstwHty-14" value="" style="endArrow=none;html=1;" edge="1" target="KKogX5XyxXrD-nstwHty-12" parent="WIyWlLk6GJQsqaUBKTNV-1" source="KKogX5XyxXrD-nstwHty-11">
          <mxGeometry width="50" height="50" relative="1" as="geometry">
            <mxPoint x="1396.9226260271928" y="273.6645545096863" as="sourcePoint" />
            <mxPoint x="1795" y="617.08" as="targetPoint" />
          </mxGeometry>
        </mxCell>
        <mxCell id="KKogX5XyxXrD-nstwHty-15" value="" style="endArrow=none;html=1;" edge="1" target="KKogX5XyxXrD-nstwHty-13" parent="WIyWlLk6GJQsqaUBKTNV-1" source="KKogX5XyxXrD-nstwHty-11">
          <mxGeometry width="50" height="50" relative="1" as="geometry">
            <mxPoint x="1433.3624681491237" y="270.0042403493299" as="sourcePoint" />
            <mxPoint x="1805" y="627.08" as="targetPoint" />
          </mxGeometry>
        </mxCell>
        <mxCell id="KKogX5XyxXrD-nstwHty-16" value="bio_body" style="ellipse;whiteSpace=wrap;html=1;" vertex="1" parent="WIyWlLk6GJQsqaUBKTNV-1">
          <mxGeometry x="1401" y="140" width="80" height="55" as="geometry" />
        </mxCell>
        <mxCell id="KKogX5XyxXrD-nstwHty-17" value="" style="endArrow=none;html=1;" edge="1" target="KKogX5XyxXrD-nstwHty-16" parent="WIyWlLk6GJQsqaUBKTNV-1" source="KKogX5XyxXrD-nstwHty-11">
          <mxGeometry width="50" height="50" relative="1" as="geometry">
            <mxPoint x="1486.4775548439097" y="116.84879797253816" as="sourcePoint" />
            <mxPoint x="1914" y="455.98" as="targetPoint" />
          </mxGeometry>
        </mxCell>
        <mxCell id="KKogX5XyxXrD-nstwHty-18" value="finish" style="ellipse;whiteSpace=wrap;html=1;dashed=1;" vertex="1" parent="WIyWlLk6GJQsqaUBKTNV-1">
          <mxGeometry x="865.75" y="670" width="70" height="50" as="geometry" />
        </mxCell>
        <mxCell id="KKogX5XyxXrD-nstwHty-19" value="" style="endArrow=none;html=1;dashed=1;" edge="1" target="KKogX5XyxXrD-nstwHty-18" parent="WIyWlLk6GJQsqaUBKTNV-1" source="QPZrH0Ajvc4-a-Q5nBBF-59">
          <mxGeometry width="50" height="50" relative="1" as="geometry">
            <mxPoint x="903.7065217391305" y="650" as="sourcePoint" />
            <mxPoint x="1094.75" y="570" as="targetPoint" />
          </mxGeometry>
        </mxCell>
        <mxCell id="KKogX5XyxXrD-nstwHty-20" value="start" style="ellipse;whiteSpace=wrap;html=1;fillColor=none;" vertex="1" parent="WIyWlLk6GJQsqaUBKTNV-1">
          <mxGeometry x="726.25" y="690" width="85" height="60" as="geometry" />
        </mxCell>
        <mxCell id="KKogX5XyxXrD-nstwHty-21" value="" style="endArrow=none;html=1;" edge="1" source="KKogX5XyxXrD-nstwHty-20" parent="WIyWlLk6GJQsqaUBKTNV-1" target="QPZrH0Ajvc4-a-Q5nBBF-59">
          <mxGeometry width="50" height="50" relative="1" as="geometry">
            <mxPoint x="1034.75" y="820" as="sourcePoint" />
            <mxPoint x="863.95" y="650" as="targetPoint" />
          </mxGeometry>
        </mxCell>
      </root>
    </mxGraphModel>
  </diagram>
</mxfile>
